<?xml version="1.0" encoding="UTF-8"?>
<!DOCTYPE svg PUBLIC "-//W3C//DTD SVG 1.1//EN" "http://www.w3.org/Graphics/SVG/1.1/DTD/svg11.dtd">
<svg xmlns="http://www.w3.org/2000/svg" version="1.1" width="294px" height="294px" style="shape-rendering:geometricPrecision; text-rendering:geometricPrecision; image-rendering:optimizeQuality; fill-rule:evenodd; clip-rule:evenodd" xmlns:xlink="http://www.w3.org/1999/xlink">
<g><path style="opacity:1" fill="#39aad5" d="M 175.5,10.5 C 161.196,10.0454 146.863,10.0454 132.5,10.5C 132.5,10.1667 132.5,9.83333 132.5,9.5C 147.028,6.80125 161.361,7.13459 175.5,10.5 Z"/></g>
<g><path style="opacity:1" fill="#34a5cf" d="M 175.5,10.5 C 183.612,11.249 191.279,13.249 198.5,16.5C 196.453,16.5111 194.453,16.8444 192.5,17.5C 191.09,17.1322 190.09,16.2989 189.5,15C 184.335,14.5549 179.669,13.0549 175.5,10.5 Z"/></g>
<g><path style="opacity:1" fill="#2ca5c6" d="M 132.5,9.5 C 132.5,9.83333 132.5,10.1667 132.5,10.5C 126.222,12.1526 119.889,13.6526 113.5,15C 109.971,17.4796 105.971,18.6463 101.5,18.5C 111.237,13.8118 121.571,10.8118 132.5,9.5 Z"/></g>
<g><path style="opacity:1" fill="#03acec" d="M 175.5,10.5 C 179.669,13.0549 184.335,14.5549 189.5,15C 190.09,16.2989 191.09,17.1322 192.5,17.5C 194.453,16.8444 196.453,16.5111 198.5,16.5C 198.833,16.5 199.167,16.5 199.5,16.5C 199.244,18.7761 197.91,19.9428 195.5,20C 197.473,20.4955 199.473,20.6621 201.5,20.5C 202.058,21.7899 203.058,22.6232 204.5,23C 200.714,23.9924 197.047,25.1591 193.5,26.5C 193.719,25.325 193.386,24.325 192.5,23.5C 192.543,31.1679 195.876,32.8345 202.5,28.5C 206.534,29.9594 210.534,31.6261 214.5,33.5C 214.833,33.1667 215.167,32.8333 215.5,32.5C 214.101,29.436 211.768,27.436 208.5,26.5C 207.548,24.9547 207.215,23.288 207.5,21.5C 208.954,22.5203 209.287,23.687 208.5,25C 211.482,25.498 214.482,25.6646 217.5,25.5C 217.423,26.7498 216.756,27.5831 215.5,28C 218.857,28.4632 220.19,30.1299 219.5,33C 221.058,33.21 222.391,33.71 223.5,34.5C 221.801,34.3398 220.134,34.5065 218.5,35C 216.217,38.1322 213.717,38.2989 211,35.5C 208.807,37.4083 206.307,37.575 203.5,36C 205.645,35.2569 205.811,34.4235 204,33.5C 200.44,34.6976 196.94,36.0309 193.5,37.5C 167.476,36.582 141.476,36.2487 115.5,36.5C 115.45,34.4099 116.45,33.0766 118.5,32.5C 118.961,29.0449 119.961,25.8782 121.5,23C 120.584,22.6258 119.75,22.1258 119,21.5C 116.61,22.724 114.11,23.224 111.5,23C 114.069,21.1222 113.736,19.6222 110.5,18.5C 107.656,19.172 104.99,20.172 102.5,21.5C 102.443,20.391 102.11,19.391 101.5,18.5C 105.971,18.6463 109.971,17.4796 113.5,15C 119.889,13.6526 126.222,12.1526 132.5,10.5C 146.863,10.0454 161.196,10.0454 175.5,10.5 Z"/></g>
<g><path style="opacity:1" fill="#02acf0" d="M 223.5,34.5 C 224.833,34.5 226.167,34.5 227.5,34.5C 229.687,35.758 232.02,36.758 234.5,37.5C 233.402,38.397 233.402,39.2303 234.5,40C 232.866,40.4935 231.199,40.6602 229.5,40.5C 229.5,42.5 229.5,44.5 229.5,46.5C 230.873,46.3433 232.207,46.51 233.5,47C 231.878,48.2951 230.545,49.7951 229.5,51.5C 229.833,52.1667 230.167,52.8333 230.5,53.5C 233.083,52.0623 235.417,52.3956 237.5,54.5C 235.604,55.4656 233.604,55.7989 231.5,55.5C 231.142,58.8981 231.808,62.0647 233.5,65C 233.241,66.2613 232.574,67.2613 231.5,68C 232.167,68.3333 232.833,68.6667 233.5,69C 240.724,69.4164 248.058,70.083 255.5,71C 255.167,71.3333 254.833,71.6667 254.5,72C 255.264,74.0693 255.764,76.236 256,78.5C 257.596,74.9372 257.763,71.2706 256.5,67.5C 252.516,67.7188 248.682,67.7188 245,67.5C 244.833,67.1667 244.667,66.8333 244.5,66.5C 249.393,65.8771 250.559,63.5437 248,59.5C 247.107,60.7112 246.274,60.7112 245.5,59.5C 244.253,57.9579 244.253,56.4579 245.5,55C 242.272,51.7792 242.938,50.2792 247.5,50.5C 247.263,51.791 247.596,52.791 248.5,53.5C 249.496,53.4142 250.329,53.7476 251,54.5C 251.202,56.2556 251.702,57.9223 252.5,59.5C 256.14,61.2522 259.14,63.5855 261.5,66.5C 262.723,70.0559 264.39,73.3893 266.5,76.5C 267.207,79.7861 267.54,83.1194 267.5,86.5C 262.013,87.1254 260.347,90.1254 262.5,95.5C 266.138,99.783 267.472,99.283 266.5,94C 266.509,92.5962 267.009,91.4296 268,90.5C 271.75,92.7467 274.583,95.7467 276.5,99.5C 276.5,100.167 276.5,100.833 276.5,101.5C 276.43,104.828 276.096,107.828 275.5,110.5C 278.888,115.763 279.554,121.096 277.5,126.5C 277.507,129.592 278.007,132.592 279,135.5C 279.333,135.167 279.667,134.833 280,134.5C 280.61,139.489 281.11,144.489 281.5,149.5C 280.744,154.056 279.744,158.556 278.5,163C 278.943,164.825 279.277,166.658 279.5,168.5C 278.307,168.97 277.64,169.97 277.5,171.5C 277.013,176.192 276.346,180.859 275.5,185.5C 274.098,185.865 273.098,186.699 272.5,188C 271.314,192.993 269.314,197.493 266.5,201.5C 265.448,201.351 264.448,201.517 263.5,202C 264.973,202.71 265.64,203.876 265.5,205.5C 265.5,206.833 264.833,207.5 263.5,207.5C 262.082,209.187 260.749,211.02 259.5,213C 255.057,213.848 254.724,215.014 258.5,216.5C 257.699,218.042 257.366,219.708 257.5,221.5C 255.311,223.507 252.645,224.507 249.5,224.5C 249.833,226.5 250.167,228.5 250.5,230.5C 247.311,232.18 243.978,233.514 240.5,234.5C 240.762,235.978 240.429,237.311 239.5,238.5C 235.895,238.797 233.229,240.463 231.5,243.5C 231.709,244.086 232.043,244.586 232.5,245C 228.862,245.452 226.528,247.286 225.5,250.5C 220.335,252.725 215.002,254.892 209.5,257C 207.757,259.957 205.09,261.457 201.5,261.5C 201.389,260.883 201.056,260.383 200.5,260C 201.624,259.751 202.624,259.251 203.5,258.5C 199.204,257.672 194.871,257.172 190.5,257C 193.833,256.667 197.167,256.333 200.5,256C 198.939,255.682 197.772,254.849 197,253.5C 197.077,249.771 196.91,246.104 196.5,242.5C 189.806,240.082 190.139,239.082 197.5,239.5C 197.664,236.813 197.497,234.146 197,231.5C 193.025,230.051 190.859,227.217 190.5,223C 192.651,221.226 194.984,219.726 197.5,218.5C 195.701,216.188 193.368,214.855 190.5,214.5C 191.11,213.609 191.443,212.609 191.5,211.5C 191.833,211.5 192.167,211.5 192.5,211.5C 194.167,211.5 195.833,211.5 197.5,211.5C 197.5,210.5 197.5,209.5 197.5,208.5C 198.978,208.238 200.311,208.571 201.5,209.5C 204.465,213.61 205.799,212.943 205.5,207.5C 201.162,207.378 200.828,207.045 204.5,206.5C 204.369,203.633 205.703,201.967 208.5,201.5C 209.873,201.657 211.207,201.49 212.5,201C 213.833,200.333 213.833,199.667 212.5,199C 213.263,198.056 214.263,197.556 215.5,197.5C 220.2,197.534 224.867,197.534 229.5,197.5C 229.56,193.515 227.56,191.848 223.5,192.5C 223.719,193.675 223.386,194.675 222.5,195.5C 220.77,194.974 219.436,193.974 218.5,192.5C 219.86,189.78 221.193,187.114 222.5,184.5C 222.392,182.486 223.058,180.82 224.5,179.5C 226.598,178.086 227.598,178.752 227.5,181.5C 228.675,181.719 229.675,181.386 230.5,180.5C 229.553,178.941 228.887,177.274 228.5,175.5C 229.269,172.885 229.603,170.219 229.5,167.5C 235.33,151.593 235.997,135.593 231.5,119.5C 231.511,114.521 230.511,110.521 228.5,107.5C 229.295,104.193 229.961,100.859 230.5,97.5C 230.314,95.4205 229.314,93.9205 227.5,93C 231.513,86.6875 229.846,84.0208 222.5,85C 221.298,87.1811 221.298,89.6811 222.5,92.5C 221.5,92.5 220.5,92.5 219.5,92.5C 217.248,88.5739 214.581,84.9072 211.5,81.5C 210.264,80.7542 208.93,80.4208 207.5,80.5C 205.5,78.8333 203.5,77.1667 201.5,75.5C 204.002,71.2462 205.669,71.5795 206.5,76.5C 210.096,76.9159 212.096,75.7492 212.5,73C 210.406,71.6485 208.073,71.1485 205.5,71.5C 205.5,70.5 205.5,69.5 205.5,68.5C 202.57,69.7875 200.237,69.2875 198.5,67C 210.934,66.3322 211.268,65.1655 199.5,63.5C 197.774,65.0298 195.774,66.0298 193.5,66.5C 191.488,65.1585 189.322,64.1585 187,63.5C 186.235,63.5699 185.735,63.9033 185.5,64.5C 175.963,61.9924 166.296,59.9924 156.5,58.5C 152.868,59.2457 149.202,59.579 145.5,59.5C 140.04,58.0783 134.707,58.4117 129.5,60.5C 127.409,60.3184 125.409,60.6518 123.5,61.5C 122.646,60.4783 121.646,59.6449 120.5,59C 123.218,58.3467 125.884,57.5134 128.5,56.5C 130.135,56.8777 131.635,57.5444 133,58.5C 140.487,57.6672 147.987,56.8339 155.5,56C 151.577,55.2073 147.744,55.374 144,56.5C 143.781,55.062 143.281,53.7287 142.5,52.5C 136.885,53.2891 131.218,53.7891 125.5,54C 120.309,55.6233 117.642,59.1233 117.5,64.5C 116.078,64.7086 114.745,65.2086 113.5,66C 113.833,66.3333 114.167,66.6667 114.5,67C 108.845,70.1314 103.178,72.9648 97.5,75.5C 96.9094,74.8485 96.2427,74.1818 95.5,73.5C 96.6293,71.4706 96.1293,71.1373 94,72.5C 91.1399,72.0269 88.8065,70.6936 87,68.5C 84.5615,69.8663 84.0615,69.3663 85.5,67C 85.2409,65.7387 84.5742,64.7387 83.5,64C 86.119,60.9146 86.119,57.7479 83.5,54.5C 85.3794,49.4 86.0461,44.0667 85.5,38.5C 82.8127,38.3359 80.146,38.5026 77.5,39C 80.0972,39.7792 80.0972,40.2792 77.5,40.5C 74.5918,39.8407 74.2584,39.0074 76.5,38C 76.6577,36.4131 75.9911,34.9131 74.5,33.5C 77.5351,33.4607 80.2018,32.4607 82.5,30.5C 86.4489,30.2936 86.4489,31.4602 82.5,34C 84,34.8333 85.1667,36 86,37.5C 89.4361,35.9611 92.6028,33.9611 95.5,31.5C 93.9018,31.3903 92.2352,31.057 90.5,30.5C 89.4173,29.635 89.2506,28.635 90,27.5C 94.1369,26.2232 97.9702,25.0565 101.5,24C 100.402,23.2303 100.402,22.397 101.5,21.5C 101.833,21.5 102.167,21.5 102.5,21.5C 104.99,20.172 107.656,19.172 110.5,18.5C 113.736,19.6222 114.069,21.1222 111.5,23C 114.11,23.224 116.61,22.724 119,21.5C 119.75,22.1258 120.584,22.6258 121.5,23C 119.961,25.8782 118.961,29.0449 118.5,32.5C 116.45,33.0766 115.45,34.4099 115.5,36.5C 141.476,36.2487 167.476,36.582 193.5,37.5C 196.94,36.0309 200.44,34.6976 204,33.5C 205.811,34.4235 205.645,35.2569 203.5,36C 206.307,37.575 208.807,37.4083 211,35.5C 213.717,38.2989 216.217,38.1322 218.5,35C 220.134,34.5065 221.801,34.3398 223.5,34.5 Z"/></g>
<g><path style="opacity:1" fill="#0cabe8" d="M 101.5,21.5 C 100.402,22.397 100.402,23.2303 101.5,24C 97.9702,25.0565 94.1369,26.2232 90,27.5C 89.2506,28.635 89.4173,29.635 90.5,30.5C 92.2352,31.057 93.9018,31.3903 95.5,31.5C 92.6028,33.9611 89.4361,35.9611 86,37.5C 85.1667,36 84,34.8333 82.5,34C 86.4489,31.4602 86.4489,30.2936 82.5,30.5C 83.6417,28.5669 85.3083,27.0669 87.5,26C 91.8288,23.8361 96.4954,22.3361 101.5,21.5 Z"/></g>
<g><path style="opacity:1" fill="#34a4ce" d="M 199.5,16.5 C 205.813,18.9899 211.813,21.9899 217.5,25.5C 214.482,25.6646 211.482,25.498 208.5,25C 209.287,23.687 208.954,22.5203 207.5,21.5C 205.565,20.8505 203.565,20.5172 201.5,20.5C 199.473,20.6621 197.473,20.4955 195.5,20C 197.91,19.9428 199.244,18.7761 199.5,16.5 Z"/></g>
<g><path style="opacity:1" fill="#39a1c9" d="M 101.5,18.5 C 102.11,19.391 102.443,20.391 102.5,21.5C 102.167,21.5 101.833,21.5 101.5,21.5C 96.4954,22.3361 91.8288,23.8361 87.5,26C 85.3083,27.0669 83.6417,28.5669 82.5,30.5C 80.2018,32.4607 77.5351,33.4607 74.5,33.5C 82.4273,26.7 91.4273,21.7 101.5,18.5 Z"/></g>
<g><path style="opacity:1" fill="#03adf2" d="M 201.5,20.5 C 203.565,20.5172 205.565,20.8505 207.5,21.5C 207.215,23.288 207.548,24.9547 208.5,26.5C 211.768,27.436 214.101,29.436 215.5,32.5C 215.167,32.8333 214.833,33.1667 214.5,33.5C 210.534,31.6261 206.534,29.9594 202.5,28.5C 195.876,32.8345 192.543,31.1679 192.5,23.5C 193.386,24.325 193.719,25.325 193.5,26.5C 197.047,25.1591 200.714,23.9924 204.5,23C 203.058,22.6232 202.058,21.7899 201.5,20.5 Z"/></g>
<g><path style="opacity:1" fill="#3ba0c3" d="M 223.5,29.5 C 227.732,31.4002 231.399,34.0669 234.5,37.5C 232.02,36.758 229.687,35.758 227.5,34.5C 226.739,33.6091 225.739,32.9424 224.5,32.5C 223.614,31.675 223.281,30.675 223.5,29.5 Z"/></g>
<g><path style="opacity:1" fill="#1caadc" d="M 217.5,25.5 C 219.777,26.4486 221.777,27.7819 223.5,29.5C 223.281,30.675 223.614,31.675 224.5,32.5C 225.739,32.9424 226.739,33.6091 227.5,34.5C 226.167,34.5 224.833,34.5 223.5,34.5C 222.391,33.71 221.058,33.21 219.5,33C 220.19,30.1299 218.857,28.4632 215.5,28C 216.756,27.5831 217.423,26.7498 217.5,25.5 Z"/></g>
<g><path style="opacity:1" fill="#04adeb" d="M 97.5,75.5 C 96.8902,76.391 96.5569,77.391 96.5,78.5C 94.4797,82.8488 91.1463,85.8488 86.5,87.5C 86.9312,88.2935 87.2645,89.1268 87.5,90C 86.1439,91.5671 85.4772,93.4004 85.5,95.5C 83.9217,96.0656 82.5884,97.0656 81.5,98.5C 78.3405,102.492 76.0072,106.825 74.5,111.5C 74.6816,109.409 74.3482,107.409 73.5,105.5C 74.325,104.614 75.325,104.281 76.5,104.5C 77.8264,101.999 78.3264,99.3323 78,96.5C 76.6841,99.028 75.5174,99.028 74.5,96.5C 72.7419,97.1279 71.2419,98.1279 70,99.5C 69.044,98.4214 68.2106,97.2547 67.5,96C 73.0238,96.0606 78.3571,94.8939 83.5,92.5C 83.4208,91.0695 83.7542,89.7362 84.5,88.5C 82.9564,87.3776 81.623,87.711 80.5,89.5C 77.6518,86.5062 78.3185,84.5062 82.5,83.5C 81.5,82.8333 80.5,82.1667 79.5,81.5C 81.0777,80.7022 82.7444,80.2022 84.5,80C 82,79.1667 81.8333,78 84,76.5C 87.8028,80.1726 91.6361,80.3393 95.5,77C 90.6058,73.6892 85.6058,70.5225 80.5,67.5C 79.5713,68.6888 79.238,70.0222 79.5,71.5C 77.5,71.5 75.5,71.5 73.5,71.5C 72.4247,68.2386 71.4247,64.9052 70.5,61.5C 69.5224,61.9767 68.6891,62.6433 68,63.5C 67.5026,60.854 67.3359,58.1873 67.5,55.5C 65.8008,55.3398 64.1341,55.5065 62.5,56C 65.1192,58.2565 65.1192,60.4232 62.5,62.5C 61.1387,60.9716 59.972,59.3049 59,57.5C 58.161,60.1396 58.661,62.4729 60.5,64.5C 59.0977,65.8425 59.4311,66.6758 61.5,67C 59.1116,67.3034 56.9449,68.1367 55,69.5C 53.414,68.624 51.914,67.624 50.5,66.5C 45.3662,67.9647 42.3662,71.298 41.5,76.5C 40.056,77.981 39.3894,77.6477 39.5,75.5C 42.418,67.3296 47.0847,60.3296 53.5,54.5C 54.7997,53.8921 56.1331,53.2255 57.5,52.5C 60.1123,53.1837 62.4456,52.3503 64.5,50C 59.3793,49.4232 59.3793,48.4232 64.5,47C 66.4936,41.3193 68.6603,41.1526 71,46.5C 72.0674,45.8095 73.2341,45.3095 74.5,45C 72.1282,43.5295 72.1282,42.3628 74.5,41.5C 76.0293,41.5288 77.196,42.1955 78,43.5C 78.4696,42.4232 78.3029,41.4232 77.5,40.5C 80.0972,40.2792 80.0972,39.7792 77.5,39C 80.146,38.5026 82.8127,38.3359 85.5,38.5C 86.0461,44.0667 85.3794,49.4 83.5,54.5C 86.119,57.7479 86.119,60.9146 83.5,64C 84.5742,64.7387 85.2409,65.7387 85.5,67C 84.0615,69.3663 84.5615,69.8663 87,68.5C 88.8065,70.6936 91.1399,72.0269 94,72.5C 96.1293,71.1373 96.6293,71.4706 95.5,73.5C 96.2427,74.1818 96.9094,74.8485 97.5,75.5 Z"/></g>
<g><path style="opacity:1" fill="#13abe2" d="M 74.5,33.5 C 75.9911,34.9131 76.6577,36.4131 76.5,38C 74.2584,39.0074 74.5918,39.8407 77.5,40.5C 78.3029,41.4232 78.4696,42.4232 78,43.5C 77.196,42.1955 76.0293,41.5288 74.5,41.5C 72.1282,42.3628 72.1282,43.5295 74.5,45C 73.2341,45.3095 72.0674,45.8095 71,46.5C 68.6603,41.1526 66.4936,41.3193 64.5,47C 59.3793,48.4232 59.3793,49.4232 64.5,50C 62.4456,52.3503 60.1123,53.1837 57.5,52.5C 56.1331,53.2255 54.7997,53.8921 53.5,54.5C 55.8777,52.1215 57.8777,49.4549 59.5,46.5C 59.5,46.1667 59.5,45.8333 59.5,45.5C 63.704,43.9668 67.0374,41.3002 69.5,37.5C 70.5846,35.4131 72.2512,34.0798 74.5,33.5 Z"/></g>
<g><path style="opacity:1" fill="#41a1c3" d="M 235.5,37.5 C 239.859,41.5282 244.193,45.5282 248.5,49.5C 245.984,49.2447 243.65,48.4114 241.5,47C 241.833,46.6667 242.167,46.3333 242.5,46C 239.507,43.5564 237.174,40.7231 235.5,37.5 Z"/></g>
<g><path style="opacity:1" fill="#46a3c0" d="M 69.5,37.5 C 67.0374,41.3002 63.704,43.9668 59.5,45.5C 62.5393,42.4602 65.8726,39.7935 69.5,37.5 Z"/></g>
<g><path style="opacity:1" fill="#04adeb" d="M 234.5,37.5 C 234.833,37.5 235.167,37.5 235.5,37.5C 237.174,40.7231 239.507,43.5564 242.5,46C 242.167,46.3333 241.833,46.6667 241.5,47C 243.65,48.4114 245.984,49.2447 248.5,49.5C 248.5,50.8333 248.5,52.1667 248.5,53.5C 247.596,52.791 247.263,51.791 247.5,50.5C 242.938,50.2792 242.272,51.7792 245.5,55C 244.253,56.4579 244.253,57.9579 245.5,59.5C 246.274,60.7112 247.107,60.7112 248,59.5C 250.559,63.5437 249.393,65.8771 244.5,66.5C 244.667,66.8333 244.833,67.1667 245,67.5C 248.682,67.7188 252.516,67.7188 256.5,67.5C 257.763,71.2706 257.596,74.9372 256,78.5C 255.764,76.236 255.264,74.0693 254.5,72C 254.833,71.6667 255.167,71.3333 255.5,71C 248.058,70.083 240.724,69.4164 233.5,69C 232.833,68.6667 232.167,68.3333 231.5,68C 232.574,67.2613 233.241,66.2613 233.5,65C 231.808,62.0647 231.142,58.8981 231.5,55.5C 233.604,55.7989 235.604,55.4656 237.5,54.5C 235.417,52.3956 233.083,52.0623 230.5,53.5C 230.167,52.8333 229.833,52.1667 229.5,51.5C 230.545,49.7951 231.878,48.2951 233.5,47C 232.207,46.51 230.873,46.3433 229.5,46.5C 229.5,44.5 229.5,42.5 229.5,40.5C 231.199,40.6602 232.866,40.4935 234.5,40C 233.402,39.2303 233.402,38.397 234.5,37.5 Z"/></g>
<g><path style="opacity:1" fill="#03aeea" d="M 129.5,60.5 C 126.307,62.925 122.641,64.5917 118.5,65.5C 117.893,65.3764 117.56,65.0431 117.5,64.5C 117.642,59.1233 120.309,55.6233 125.5,54C 131.218,53.7891 136.885,53.2891 142.5,52.5C 143.281,53.7287 143.781,55.062 144,56.5C 147.744,55.374 151.577,55.2073 155.5,56C 147.987,56.8339 140.487,57.6672 133,58.5C 131.635,57.5444 130.135,56.8777 128.5,56.5C 125.884,57.5134 123.218,58.3467 120.5,59C 121.646,59.6449 122.646,60.4783 123.5,61.5C 125.409,60.6518 127.409,60.3184 129.5,60.5 Z"/></g>
<g><path style="opacity:1" fill="#01adef" d="M 74.5,111.5 C 74.5,111.833 74.5,112.167 74.5,112.5C 73.209,112.737 72.209,112.404 71.5,111.5C 72.6954,109.65 72.0287,108.65 69.5,108.5C 59.4482,109.67 49.6149,109.67 40,108.5C 37.8252,109.255 35.6585,110.088 33.5,111C 34.056,111.383 34.3893,111.883 34.5,112.5C 30.3209,113.343 27.3209,112.01 25.5,108.5C 25.9756,104.583 26.9756,100.916 28.5,97.5C 29.0576,99.5934 30.3909,101.093 32.5,102C 32.1667,102.333 31.8333,102.667 31.5,103C 37.9891,103.682 37.9891,104.516 31.5,105.5C 31.5,106.5 31.5,107.5 31.5,108.5C 33.1992,108.66 34.8659,108.494 36.5,108C 38.1352,106.252 40.1352,105.085 42.5,104.5C 39.1579,103.161 35.8246,101.828 32.5,100.5C 32.0358,98.0251 31.0358,96.0251 29.5,94.5C 29.5,93.8333 29.5,93.1667 29.5,92.5C 31.6174,93.9342 33.284,93.4342 34.5,91C 36.0429,86.2859 37.0429,81.4526 37.5,76.5C 38.1667,76.1667 38.8333,75.8333 39.5,75.5C 39.3894,77.6477 40.056,77.981 41.5,76.5C 42.3662,71.298 45.3662,67.9647 50.5,66.5C 51.914,67.624 53.414,68.624 55,69.5C 56.9449,68.1367 59.1116,67.3034 61.5,67C 59.4311,66.6758 59.0977,65.8425 60.5,64.5C 58.661,62.4729 58.161,60.1396 59,57.5C 59.972,59.3049 61.1387,60.9716 62.5,62.5C 65.1192,60.4232 65.1192,58.2565 62.5,56C 64.1341,55.5065 65.8008,55.3398 67.5,55.5C 67.3359,58.1873 67.5026,60.854 68,63.5C 68.6891,62.6433 69.5224,61.9767 70.5,61.5C 71.4247,64.9052 72.4247,68.2386 73.5,71.5C 75.5,71.5 77.5,71.5 79.5,71.5C 79.238,70.0222 79.5713,68.6888 80.5,67.5C 85.6058,70.5225 90.6058,73.6892 95.5,77C 91.6361,80.3393 87.8028,80.1726 84,76.5C 81.8333,78 82,79.1667 84.5,80C 82.7444,80.2022 81.0777,80.7022 79.5,81.5C 80.5,82.1667 81.5,82.8333 82.5,83.5C 78.3185,84.5062 77.6518,86.5062 80.5,89.5C 81.623,87.711 82.9564,87.3776 84.5,88.5C 83.7542,89.7362 83.4208,91.0695 83.5,92.5C 78.3571,94.8939 73.0238,96.0606 67.5,96C 68.2106,97.2547 69.044,98.4214 70,99.5C 71.2419,98.1279 72.7419,97.1279 74.5,96.5C 75.5174,99.028 76.6841,99.028 78,96.5C 78.3264,99.3323 77.8264,101.999 76.5,104.5C 75.325,104.281 74.325,104.614 73.5,105.5C 74.3482,107.409 74.6816,109.409 74.5,111.5 Z"/></g>
<g><path style="opacity:1" fill="#419dbe" d="M 59.5,46.5 C 57.8777,49.4549 55.8777,52.1215 53.5,54.5C 47.0847,60.3296 42.418,67.3296 39.5,75.5C 38.8333,75.8333 38.1667,76.1667 37.5,76.5C 36.8333,76.8333 36.1667,77.1667 35.5,77.5C 41.2985,65.3795 49.2985,55.0462 59.5,46.5 Z"/></g>
<g><path style="opacity:1" fill="#41a5c8" d="M 143.5,60.5 C 139.705,61.6167 135.705,62.2833 131.5,62.5C 131.918,61.7784 132.584,61.2784 133.5,61C 136.817,60.5017 140.15,60.335 143.5,60.5 Z"/></g>
<g><path style="opacity:1" fill="#42a5c8" d="M 248.5,49.5 C 253.558,54.618 257.891,60.2847 261.5,66.5C 259.14,63.5855 256.14,61.2522 252.5,59.5C 251.702,57.9223 251.202,56.2556 251,54.5C 250.329,53.7476 249.496,53.4142 248.5,53.5C 248.5,52.1667 248.5,50.8333 248.5,49.5 Z"/></g>
<g><path style="opacity:1" fill="#32a5cb" d="M 185.5,64.5 C 187.121,64.7869 188.121,65.7869 188.5,67.5C 190.813,68.2733 193.146,68.9399 195.5,69.5C 196.386,70.325 196.719,71.325 196.5,72.5C 198.959,72.31 200.626,73.31 201.5,75.5C 203.5,77.1667 205.5,78.8333 207.5,80.5C 208.11,81.391 208.443,82.391 208.5,83.5C 190.866,66.9522 169.866,59.2855 145.5,60.5C 145.5,60.1667 145.5,59.8333 145.5,59.5C 149.202,59.579 152.868,59.2457 156.5,58.5C 166.296,59.9924 175.963,61.9924 185.5,64.5 Z"/></g>
<g><path style="opacity:1" fill="#05aeec" d="M 185.5,64.5 C 185.735,63.9033 186.235,63.5699 187,63.5C 189.322,64.1585 191.488,65.1585 193.5,66.5C 195.774,66.0298 197.774,65.0298 199.5,63.5C 211.268,65.1655 210.934,66.3322 198.5,67C 200.237,69.2875 202.57,69.7875 205.5,68.5C 205.5,69.5 205.5,70.5 205.5,71.5C 208.073,71.1485 210.406,71.6485 212.5,73C 212.096,75.7492 210.096,76.9159 206.5,76.5C 205.669,71.5795 204.002,71.2462 201.5,75.5C 200.626,73.31 198.959,72.31 196.5,72.5C 196.719,71.325 196.386,70.325 195.5,69.5C 193.146,68.9399 190.813,68.2733 188.5,67.5C 188.121,65.7869 187.121,64.7869 185.5,64.5 Z"/></g>
<g><path style="opacity:1" fill="#4da1bf" d="M 261.5,66.5 C 264.502,69.1612 266.502,72.4945 267.5,76.5C 267.167,76.5 266.833,76.5 266.5,76.5C 264.39,73.3893 262.723,70.0559 261.5,66.5 Z"/></g>
<g><path style="opacity:1" fill="#2fa6d6" d="M 145.5,59.5 C 145.5,59.8333 145.5,60.1667 145.5,60.5C 144.833,60.5 144.167,60.5 143.5,60.5C 140.15,60.335 136.817,60.5017 133.5,61C 132.584,61.2784 131.918,61.7784 131.5,62.5C 120.511,66.4949 110.178,71.8282 100.5,78.5C 99.1667,78.5 97.8333,78.5 96.5,78.5C 96.5569,77.391 96.8902,76.391 97.5,75.5C 103.178,72.9648 108.845,70.1314 114.5,67C 114.167,66.6667 113.833,66.3333 113.5,66C 114.745,65.2086 116.078,64.7086 117.5,64.5C 117.56,65.0431 117.893,65.3764 118.5,65.5C 122.641,64.5917 126.307,62.925 129.5,60.5C 134.707,58.4117 140.04,58.0783 145.5,59.5 Z"/></g>
<g><path style="opacity:1" fill="#38a5c4" d="M 268.5,77.5 C 272.12,83.0057 274.786,89.0057 276.5,95.5C 274.926,95.0629 273.759,94.0629 273,92.5C 272.661,89.3165 271.328,86.6498 269,84.5C 268.503,82.1902 268.337,79.8568 268.5,77.5 Z"/></g>
<g><path style="opacity:1" fill="#50a5c2" d="M 208.5,83.5 C 211.167,84.1667 212.833,85.8333 213.5,88.5C 211.5,87.1667 209.833,85.5 208.5,83.5 Z"/></g>
<g><path style="opacity:1" fill="#39a4c2" d="M 96.5,78.5 C 97.8333,78.5 99.1667,78.5 100.5,78.5C 95.0992,83.8953 90.0992,89.562 85.5,95.5C 85.4772,93.4004 86.1439,91.5671 87.5,90C 87.2645,89.1268 86.9312,88.2935 86.5,87.5C 91.1463,85.8488 94.4797,82.8488 96.5,78.5 Z"/></g>
<g><path style="opacity:1" fill="#0fade9" d="M 266.5,76.5 C 266.833,76.5 267.167,76.5 267.5,76.5C 268.167,76.5 268.5,76.8333 268.5,77.5C 268.337,79.8568 268.503,82.1902 269,84.5C 271.328,86.6498 272.661,89.3165 273,92.5C 273.759,94.0629 274.926,95.0629 276.5,95.5C 276.5,96.8333 276.5,98.1667 276.5,99.5C 274.583,95.7467 271.75,92.7467 268,90.5C 267.009,91.4296 266.509,92.5962 266.5,94C 267.472,99.283 266.138,99.783 262.5,95.5C 260.347,90.1254 262.013,87.1254 267.5,86.5C 267.54,83.1194 267.207,79.7861 266.5,76.5 Z"/></g>
<g><path style="opacity:1" fill="#13aadd" d="M 37.5,76.5 C 37.0429,81.4526 36.0429,86.2859 34.5,91C 33.284,93.4342 31.6174,93.9342 29.5,92.5C 31.8992,87.6306 33.8992,82.6306 35.5,77.5C 36.1667,77.1667 36.8333,76.8333 37.5,76.5 Z"/></g>
<g><path style="opacity:1" fill="#0fabe6" d="M 207.5,80.5 C 208.93,80.4208 210.264,80.7542 211.5,81.5C 214.581,84.9072 217.248,88.5739 219.5,92.5C 220.5,92.5 221.5,92.5 222.5,92.5C 221.298,89.6811 221.298,87.1811 222.5,85C 229.846,84.0208 231.513,86.6875 227.5,93C 229.314,93.9205 230.314,95.4205 230.5,97.5C 229.961,100.859 229.295,104.193 228.5,107.5C 230.511,110.521 231.511,114.521 231.5,119.5C 229.859,115.6 228.192,111.6 226.5,107.5C 226.043,106.702 225.376,106.369 224.5,106.5C 224.5,106.167 224.5,105.833 224.5,105.5C 224.938,105.565 225.272,105.399 225.5,105C 224.307,102.113 222.973,99.2796 221.5,96.5C 219.457,95.4206 218.124,93.754 217.5,91.5C 216.675,90.6143 215.675,90.281 214.5,90.5C 214.167,89.8333 213.833,89.1667 213.5,88.5C 212.833,85.8333 211.167,84.1667 208.5,83.5C 208.443,82.391 208.11,81.391 207.5,80.5 Z"/></g>
<g><path style="opacity:1" fill="#06aaf3" d="M 29.5,94.5 C 31.0358,96.0251 32.0358,98.0251 32.5,100.5C 35.8246,101.828 39.1579,103.161 42.5,104.5C 40.1352,105.085 38.1352,106.252 36.5,108C 34.8659,108.494 33.1992,108.66 31.5,108.5C 31.5,107.5 31.5,106.5 31.5,105.5C 37.9891,104.516 37.9891,103.682 31.5,103C 31.8333,102.667 32.1667,102.333 32.5,102C 30.3909,101.093 29.0576,99.5934 28.5,97.5C 28.2627,96.209 28.596,95.209 29.5,94.5 Z"/></g>
<g><path style="opacity:1" fill="#41a4c4" d="M 214.5,90.5 C 215.675,90.281 216.675,90.6143 217.5,91.5C 218.124,93.754 219.457,95.4206 221.5,96.5C 222.973,99.2796 224.307,102.113 225.5,105C 225.272,105.399 224.938,105.565 224.5,105.5C 221.428,100.365 218.095,95.3648 214.5,90.5 Z"/></g>
<g><path style="opacity:1" fill="#50a0b3" d="M 23.5,108.5 C 24.7416,110.389 24.7416,112.389 23.5,114.5C 22.7611,114.631 22.0944,114.464 21.5,114C 22.1094,112.052 22.776,110.218 23.5,108.5 Z"/></g>
<g><path style="opacity:1" fill="#389cc2" d="M 35.5,77.5 C 33.8992,82.6306 31.8992,87.6306 29.5,92.5C 29.5,93.1667 29.5,93.8333 29.5,94.5C 28.596,95.209 28.2627,96.209 28.5,97.5C 26.9756,100.916 25.9756,104.583 25.5,108.5C 25.5,110.167 25.5,111.833 25.5,113.5C 42.0085,113.83 58.3419,113.496 74.5,112.5C 74.5,112.167 74.5,111.833 74.5,111.5C 76.0072,106.825 78.3405,102.492 81.5,98.5C 82.5884,97.0656 83.9217,96.0656 85.5,95.5C 81.694,101.446 78.694,107.779 76.5,114.5C 58.8333,114.5 41.1667,114.5 23.5,114.5C 24.7416,112.389 24.7416,110.389 23.5,108.5C 25.9439,97.4915 29.9439,87.1582 35.5,77.5 Z"/></g>
<g><path style="opacity:1" fill="#18aad8" d="M 25.5,108.5 C 27.3209,112.01 30.3209,113.343 34.5,112.5C 46.8637,112.752 59.197,112.418 71.5,111.5C 72.209,112.404 73.209,112.737 74.5,112.5C 58.3419,113.496 42.0085,113.83 25.5,113.5C 25.5,111.833 25.5,110.167 25.5,108.5 Z"/></g>
<g><path style="opacity:1" fill="#02afe9" d="M 71.5,111.5 C 59.197,112.418 46.8637,112.752 34.5,112.5C 34.3893,111.883 34.056,111.383 33.5,111C 35.6585,110.088 37.8252,109.255 40,108.5C 49.6149,109.67 59.4482,109.67 69.5,108.5C 72.0287,108.65 72.6954,109.65 71.5,111.5 Z"/></g>
<g><path style="opacity:1" fill="#0ca9e5" d="M 276.5,101.5 C 277.117,101.611 277.617,101.944 278,102.5C 282.939,124.331 283.773,146.331 280.5,168.5C 280.167,168.5 279.833,168.5 279.5,168.5C 279.277,166.658 278.943,164.825 278.5,163C 279.744,158.556 280.744,154.056 281.5,149.5C 281.11,144.489 280.61,139.489 280,134.5C 279.667,134.833 279.333,135.167 279,135.5C 278.007,132.592 277.507,129.592 277.5,126.5C 279.554,121.096 278.888,115.763 275.5,110.5C 276.096,107.828 276.43,104.828 276.5,101.5 Z"/></g>
<g><path style="opacity:1" fill="#459ebd" d="M 276.5,95.5 C 284.031,115.406 286.531,136.073 284,157.5C 282.973,165.49 281.14,173.157 278.5,180.5C 278.782,176.426 279.448,172.426 280.5,168.5C 283.773,146.331 282.939,124.331 278,102.5C 277.617,101.944 277.117,101.611 276.5,101.5C 276.5,100.833 276.5,100.167 276.5,99.5C 276.5,98.1667 276.5,96.8333 276.5,95.5 Z"/></g>
<g><path style="opacity:1" fill="#3f9cbf" d="M 224.5,106.5 C 225.376,106.369 226.043,106.702 226.5,107.5C 228.192,111.6 229.859,115.6 231.5,119.5C 235.997,135.593 235.33,151.593 229.5,167.5C 229.167,167.5 228.833,167.5 228.5,167.5C 234.758,146.62 233.424,126.287 224.5,106.5 Z"/></g>
<g><path style="opacity:1" fill="#16adde" d="M 228.5,167.5 C 228.833,167.5 229.167,167.5 229.5,167.5C 229.603,170.219 229.269,172.885 228.5,175.5C 228.887,177.274 229.553,178.941 230.5,180.5C 229.675,181.386 228.675,181.719 227.5,181.5C 227.598,178.752 226.598,178.086 224.5,179.5C 226.41,175.683 227.743,171.683 228.5,167.5 Z"/></g>
<g><path style="opacity:1" fill="#03acef" d="M 69.5,169.5 C 71.7179,169.614 73.7179,170.28 75.5,171.5C 75.5,171.833 75.5,172.167 75.5,172.5C 75.3379,174.527 75.5045,176.527 76,178.5C 77.0113,179.337 78.1779,179.67 79.5,179.5C 79.762,180.978 79.4287,182.311 78.5,183.5C 76.5,182.833 74.5,182.167 72.5,181.5C 68.586,181.374 64.2526,181.707 59.5,182.5C 50.0543,179.873 40.721,180.04 31.5,183C 32.6575,199.093 32.8242,215.259 32,231.5C 31.3333,230.167 30.3333,229.167 29,228.5C 28.1829,213.122 28.3495,197.789 29.5,182.5C 27.565,181.787 27.2317,180.787 28.5,179.5C 34.1194,180.058 39.786,179.392 45.5,177.5C 50.3262,178.221 55.1595,178.888 60,179.5C 62.2998,179.506 64.4664,179.006 66.5,178C 65.9535,177.075 65.2868,176.242 64.5,175.5C 58.8855,176.263 53.2188,176.263 47.5,175.5C 41.8799,175.557 36.3799,176.224 31,177.5C 24.7521,176.439 24.0854,174.106 29,170.5C 38.9144,172.319 49.0811,173.319 59.5,173.5C 63.7774,174.227 67.1107,172.893 69.5,169.5 Z"/></g>
<g><path style="opacity:1" fill="#5bb2d0" d="M 80.5,178.5 C 78.0514,177.06 76.3847,175.06 75.5,172.5C 75.5,172.167 75.5,171.833 75.5,171.5C 75.5,170.5 75.5,169.5 75.5,168.5C 57.8333,168.5 40.1667,168.5 22.5,168.5C 22.5,193.167 22.5,217.833 22.5,242.5C 21.5023,217.672 21.169,192.672 21.5,167.5C 39.8454,167.167 58.1788,167.5 76.5,168.5C 77.8462,171.855 79.1796,175.188 80.5,178.5 Z"/></g>
<g><path style="opacity:1" fill="#22a7da" d="M 279.5,168.5 C 279.833,168.5 280.167,168.5 280.5,168.5C 279.448,172.426 278.782,176.426 278.5,180.5C 278.233,182.965 277.566,185.299 276.5,187.5C 275.504,187.414 274.671,187.748 274,188.5C 272.921,191.063 272.421,193.729 272.5,196.5C 269.447,198.939 267.114,201.939 265.5,205.5C 265.64,203.876 264.973,202.71 263.5,202C 264.448,201.517 265.448,201.351 266.5,201.5C 269.314,197.493 271.314,192.993 272.5,188C 273.098,186.699 274.098,185.865 275.5,185.5C 276.346,180.859 277.013,176.192 277.5,171.5C 277.64,169.97 278.307,168.97 279.5,168.5 Z"/></g>
<g><path style="opacity:1" fill="#02adec" d="M 75.5,172.5 C 76.3847,175.06 78.0514,177.06 80.5,178.5C 80.8758,184.253 83.5425,188.586 88.5,191.5C 89.4735,194.135 91.1402,196.135 93.5,197.5C 93.8333,197.5 94.1667,197.5 94.5,197.5C 94.5374,200.953 95.8707,203.619 98.5,205.5C 97.2086,206.473 97.2086,207.473 98.5,208.5C 103.977,207.904 108.31,210.071 111.5,215C 114.146,215.497 116.813,215.664 119.5,215.5C 121.403,215.796 123.07,216.463 124.5,217.5C 125.318,218.937 126.985,219.937 129.5,220.5C 126.206,220.259 123.206,221.092 120.5,223C 121.126,223.75 121.626,224.584 122,225.5C 123.488,224.804 124.988,225.138 126.5,226.5C 126.919,227.672 127.585,228.672 128.5,229.5C 129.519,228.313 130.686,227.313 132,226.5C 135.076,227.288 138.242,227.788 141.5,228C 140.833,228.333 140.167,228.667 139.5,229C 142.546,231.174 145.88,231.841 149.5,231C 148.833,230.667 148.167,230.333 147.5,230C 151.486,229.501 155.486,229.334 159.5,229.5C 159.281,230.675 159.614,231.675 160.5,232.5C 166.808,235.165 173.141,237.498 179.5,239.5C 180.366,236.833 181.366,234.167 182.5,231.5C 185.443,230.756 188.443,230.256 191.5,230C 190.062,229.781 188.729,229.281 187.5,228.5C 188.025,227.808 188.692,227.308 189.5,227C 188.062,226.781 186.729,226.281 185.5,225.5C 186.81,222.527 188.81,220.193 191.5,218.5C 190.311,217.571 188.978,217.238 187.5,217.5C 187.5,215.5 188.5,214.5 190.5,214.5C 193.368,214.855 195.701,216.188 197.5,218.5C 194.984,219.726 192.651,221.226 190.5,223C 190.859,227.217 193.025,230.051 197,231.5C 197.497,234.146 197.664,236.813 197.5,239.5C 190.139,239.082 189.806,240.082 196.5,242.5C 196.91,246.104 197.077,249.771 197,253.5C 197.772,254.849 198.939,255.682 200.5,256C 197.167,256.333 193.833,256.667 190.5,257C 194.871,257.172 199.204,257.672 203.5,258.5C 202.624,259.251 201.624,259.751 200.5,260C 201.056,260.383 201.389,260.883 201.5,261.5C 199.586,262.185 197.586,262.685 195.5,263C 196.094,263.464 196.761,263.631 197.5,263.5C 197.389,264.117 197.056,264.617 196.5,265C 191.363,265.867 186.363,267.201 181.5,269C 182.056,269.383 182.389,269.883 182.5,270.5C 179.002,271.917 175.335,272.583 171.5,272.5C 154.792,272.721 138.125,272.054 121.5,270.5C 120.833,270.5 120.167,270.5 119.5,270.5C 119.918,269.778 120.584,269.278 121.5,269C 118.956,267.908 116.289,267.241 113.5,267C 114.938,266.781 116.271,266.281 117.5,265.5C 117.167,265.167 116.833,264.833 116.5,264.5C 113.469,265.825 110.469,265.825 107.5,264.5C 103.596,263.508 99.5956,262.508 95.5,261.5C 93.2182,257.188 89.5515,255.188 84.5,255.5C 83.1575,252.659 80.9909,250.659 78,249.5C 77.5172,248.552 77.3505,247.552 77.5,246.5C 75.0521,245.527 72.3854,245.194 69.5,245.5C 69.719,246.675 69.3857,247.675 68.5,248.5C 67.549,247.674 66.549,247.508 65.5,248C 67.3266,248.899 68.66,250.233 69.5,252C 68.5325,263.128 68.1992,274.294 68.5,285.5C 65.8333,285.5 63.1667,285.5 60.5,285.5C 58.5853,285.216 56.9187,285.549 55.5,286.5C 55.1667,286.5 54.8333,286.5 54.5,286.5C 54.5858,285.504 54.2524,284.671 53.5,284C 54.1667,283.667 54.8333,283.333 55.5,283C 52.0498,281.97 48.7165,280.637 45.5,279C 46.3567,278.311 47.0233,277.478 47.5,276.5C 45.8333,274.5 44.1667,272.5 42.5,270.5C 43.0318,268.259 44.3651,266.759 46.5,266C 44.8629,264.049 43.3629,264.216 42,266.5C 40.4412,268.217 39.6079,270.217 39.5,272.5C 38.5,272.5 37.5,272.5 36.5,272.5C 34.3763,271.969 32.8763,270.635 32,268.5C 29.8277,263.876 27.9944,259.209 26.5,254.5C 26.0169,253.018 26.6836,251.684 28.5,250.5C 27.675,249.614 26.675,249.281 25.5,249.5C 25.5665,225.811 26.5665,202.477 28.5,179.5C 27.2317,180.787 27.565,181.787 29.5,182.5C 28.3495,197.789 28.1829,213.122 29,228.5C 30.3333,229.167 31.3333,230.167 32,231.5C 32.8242,215.259 32.6575,199.093 31.5,183C 40.721,180.04 50.0543,179.873 59.5,182.5C 64.2526,181.707 68.586,181.374 72.5,181.5C 74.5,182.167 76.5,182.833 78.5,183.5C 79.4287,182.311 79.762,180.978 79.5,179.5C 78.1779,179.67 77.0113,179.337 76,178.5C 75.5045,176.527 75.3379,174.527 75.5,172.5 Z"/></g>
<g><path style="opacity:1" fill="#1ca3d1" d="M 75.5,171.5 C 73.7179,170.28 71.7179,169.614 69.5,169.5C 54.5,169.5 39.5,169.5 24.5,169.5C 24.5,195.833 24.5,222.167 24.5,248.5C 23.8333,246.833 23.1667,245.167 22.5,243.5C 22.5,243.167 22.5,242.833 22.5,242.5C 22.5,217.833 22.5,193.167 22.5,168.5C 40.1667,168.5 57.8333,168.5 75.5,168.5C 75.5,169.5 75.5,170.5 75.5,171.5 Z"/></g>
<g><path style="opacity:1" fill="#05ade9" d="M 69.5,169.5 C 67.1107,172.893 63.7774,174.227 59.5,173.5C 49.0811,173.319 38.9144,172.319 29,170.5C 24.0854,174.106 24.7521,176.439 31,177.5C 36.3799,176.224 41.8799,175.557 47.5,175.5C 53.2188,176.263 58.8855,176.263 64.5,175.5C 65.2868,176.242 65.9535,177.075 66.5,178C 64.4664,179.006 62.2998,179.506 60,179.5C 55.1595,178.888 50.3262,178.221 45.5,177.5C 39.786,179.392 34.1194,180.058 28.5,179.5C 26.5665,202.477 25.5665,225.811 25.5,249.5C 26.675,249.281 27.675,249.614 28.5,250.5C 26.6836,251.684 26.0169,253.018 26.5,254.5C 24.7202,253.01 24.0535,251.01 24.5,248.5C 24.5,222.167 24.5,195.833 24.5,169.5C 39.5,169.5 54.5,169.5 69.5,169.5 Z"/></g>
<g><path style="opacity:1" fill="#4da1c1" d="M 80.5,178.5 C 83.1589,182.828 85.8256,187.162 88.5,191.5C 83.5425,188.586 80.8758,184.253 80.5,178.5 Z"/></g>
<g><path style="opacity:1" fill="#46a0bd" d="M 228.5,167.5 C 227.743,171.683 226.41,175.683 224.5,179.5C 223.058,180.82 222.392,182.486 222.5,184.5C 219.548,186.381 217.548,189.048 216.5,192.5C 215.06,193.952 213.394,194.952 211.5,195.5C 218.715,187.064 224.381,177.731 228.5,167.5 Z"/></g>
<g><path style="opacity:1" fill="#48a7bd" d="M 276.5,187.5 C 275.403,190.686 274.07,193.686 272.5,196.5C 272.421,193.729 272.921,191.063 274,188.5C 274.671,187.748 275.504,187.414 276.5,187.5 Z"/></g>
<g><path style="opacity:1" fill="#0aade8" d="M 222.5,184.5 C 221.193,187.114 219.86,189.78 218.5,192.5C 219.436,193.974 220.77,194.974 222.5,195.5C 223.386,194.675 223.719,193.675 223.5,192.5C 227.56,191.848 229.56,193.515 229.5,197.5C 224.867,197.534 220.2,197.534 215.5,197.5C 214.263,197.556 213.263,198.056 212.5,199C 213.833,199.667 213.833,200.333 212.5,201C 211.207,201.49 209.873,201.657 208.5,201.5C 210.025,199.784 211.025,197.784 211.5,195.5C 213.394,194.952 215.06,193.952 216.5,192.5C 217.548,189.048 219.548,186.381 222.5,184.5 Z"/></g>
<g><path style="opacity:1" fill="#48a2c1" d="M 88.5,191.5 C 90.914,192.911 92.5806,194.911 93.5,197.5C 91.1402,196.135 89.4735,194.135 88.5,191.5 Z"/></g>
<g><path style="opacity:1" fill="#37aad0" d="M 94.5,197.5 C 98.1925,200.862 101.859,204.195 105.5,207.5C 103.106,206.985 100.772,206.319 98.5,205.5C 95.8707,203.619 94.5374,200.953 94.5,197.5 Z"/></g>
<g><path style="opacity:1" fill="#35a7d0" d="M 211.5,195.5 C 211.025,197.784 210.025,199.784 208.5,201.5C 205.703,201.967 204.369,203.633 204.5,206.5C 200.828,207.045 201.162,207.378 205.5,207.5C 205.799,212.943 204.465,213.61 201.5,209.5C 200.311,208.571 198.978,208.238 197.5,208.5C 197.5,209.5 197.5,210.5 197.5,211.5C 195.833,211.5 194.167,211.5 192.5,211.5C 199.394,206.948 205.728,201.615 211.5,195.5 Z"/></g>
<g><path style="opacity:1" fill="#26a7da" d="M 98.5,205.5 C 100.772,206.319 103.106,206.985 105.5,207.5C 110.175,210.17 114.841,212.837 119.5,215.5C 116.813,215.664 114.146,215.497 111.5,215C 108.31,210.071 103.977,207.904 98.5,208.5C 97.2086,207.473 97.2086,206.473 98.5,205.5 Z"/></g>
<g><path style="opacity:1" fill="#47a4c3" d="M 272.5,196.5 C 268.754,205.67 263.754,214.004 257.5,221.5C 257.366,219.708 257.699,218.042 258.5,216.5C 261.83,214.579 263.497,211.579 263.5,207.5C 264.833,207.5 265.5,206.833 265.5,205.5C 267.114,201.939 269.447,198.939 272.5,196.5 Z"/></g>
<g><path style="opacity:1" fill="#10abdf" d="M 263.5,207.5 C 263.497,211.579 261.83,214.579 258.5,216.5C 254.724,215.014 255.057,213.848 259.5,213C 260.749,211.02 262.082,209.187 263.5,207.5 Z"/></g>
<g><path style="opacity:1" fill="#34a1cb" d="M 191.5,211.5 C 191.443,212.609 191.11,213.609 190.5,214.5C 188.5,214.5 187.5,215.5 187.5,217.5C 182.934,218.807 178.267,219.474 173.5,219.5C 179.511,217.044 185.511,214.378 191.5,211.5 Z"/></g>
<g><path style="opacity:1" fill="#04acee" d="M 187.5,217.5 C 188.978,217.238 190.311,217.571 191.5,218.5C 188.81,220.193 186.81,222.527 185.5,225.5C 186.729,226.281 188.062,226.781 189.5,227C 188.692,227.308 188.025,227.808 187.5,228.5C 188.729,229.281 190.062,229.781 191.5,230C 188.443,230.256 185.443,230.756 182.5,231.5C 181.366,234.167 180.366,236.833 179.5,239.5C 173.141,237.498 166.808,235.165 160.5,232.5C 159.614,231.675 159.281,230.675 159.5,229.5C 155.486,229.334 151.486,229.501 147.5,230C 148.167,230.333 148.833,230.667 149.5,231C 145.88,231.841 142.546,231.174 139.5,229C 140.167,228.667 140.833,228.333 141.5,228C 138.242,227.788 135.076,227.288 132,226.5C 130.686,227.313 129.519,228.313 128.5,229.5C 127.585,228.672 126.919,227.672 126.5,226.5C 124.988,225.138 123.488,224.804 122,225.5C 121.626,224.584 121.126,223.75 120.5,223C 123.206,221.092 126.206,220.259 129.5,220.5C 130.791,221.778 132.791,222.445 135.5,222.5C 146.937,224.623 158.604,225.956 170.5,226.5C 170.169,224.678 169.502,223.011 168.5,221.5C 170.179,221.715 171.179,221.048 171.5,219.5C 172.167,219.5 172.833,219.5 173.5,219.5C 178.267,219.474 182.934,218.807 187.5,217.5 Z"/></g>
<g><path style="opacity:1" fill="#33a6cd" d="M 124.5,217.5 C 140.014,221.887 155.681,222.554 171.5,219.5C 171.179,221.048 170.179,221.715 168.5,221.5C 157.531,222.407 146.531,222.74 135.5,222.5C 132.791,222.445 130.791,221.778 129.5,220.5C 126.985,219.937 125.318,218.937 124.5,217.5 Z"/></g>
<g><path style="opacity:1" fill="#0caadf" d="M 168.5,221.5 C 169.502,223.011 170.169,224.678 170.5,226.5C 158.604,225.956 146.937,224.623 135.5,222.5C 146.531,222.74 157.531,222.407 168.5,221.5 Z"/></g>
<g><path style="opacity:1" fill="#3fa3cb" d="M 257.5,221.5 C 255.518,224.81 253.185,227.81 250.5,230.5C 250.167,228.5 249.833,226.5 249.5,224.5C 252.645,224.507 255.311,223.507 257.5,221.5 Z"/></g>
<g><path style="opacity:1" fill="#41a2cd" d="M 77.5,246.5 C 77.3505,247.552 77.5172,248.552 78,249.5C 80.9909,250.659 83.1575,252.659 84.5,255.5C 79.8033,253.822 75.8033,251.156 72.5,247.5C 74.2352,246.943 75.9018,246.61 77.5,246.5 Z"/></g>
<g><path style="opacity:1" fill="#17a6dd" d="M 77.5,246.5 C 75.9018,246.61 74.2352,246.943 72.5,247.5C 72.1667,247.5 71.8333,247.5 71.5,247.5C 70.6862,249.631 70.1862,251.964 70,254.5C 69.5002,265.495 69.3335,276.495 69.5,287.5C 66.2186,287.58 63.2186,286.913 60.5,285.5C 63.1667,285.5 65.8333,285.5 68.5,285.5C 68.1992,274.294 68.5325,263.128 69.5,252C 68.66,250.233 67.3266,248.899 65.5,248C 66.549,247.508 67.549,247.674 68.5,248.5C 69.3857,247.675 69.719,246.675 69.5,245.5C 72.3854,245.194 75.0521,245.527 77.5,246.5 Z"/></g>
<g><path style="opacity:1" fill="#34a4c8" d="M 84.5,255.5 C 89.5515,255.188 93.2182,257.188 95.5,261.5C 91.6654,259.75 87.9988,257.75 84.5,255.5 Z"/></g>
<g><path style="opacity:1" fill="#3ea0c0" d="M 22.5,243.5 C 23.1667,245.167 23.8333,246.833 24.5,248.5C 24.0535,251.01 24.7202,253.01 26.5,254.5C 27.9944,259.209 29.8277,263.876 32,268.5C 32.8763,270.635 34.3763,271.969 36.5,272.5C 37.5893,274.117 39.256,274.95 41.5,275C 40.6634,276.011 40.33,277.178 40.5,278.5C 43.3815,279.379 45.7149,281.046 47.5,283.5C 31.6254,275.122 23.2921,261.789 22.5,243.5 Z"/></g>
<g><path style="opacity:1" fill="#30a6d1" d="M 250.5,230.5 C 238.664,244.342 224.33,254.676 207.5,261.5C 204.211,262.374 200.877,263.041 197.5,263.5C 196.761,263.631 196.094,263.464 195.5,263C 197.586,262.685 199.586,262.185 201.5,261.5C 205.09,261.457 207.757,259.957 209.5,257C 215.002,254.892 220.335,252.725 225.5,250.5C 226.528,247.286 228.862,245.452 232.5,245C 232.043,244.586 231.709,244.086 231.5,243.5C 233.229,240.463 235.895,238.797 239.5,238.5C 240.429,237.311 240.762,235.978 240.5,234.5C 243.978,233.514 247.311,232.18 250.5,230.5 Z"/></g>
<g><path style="opacity:1" fill="#35a7c3" d="M 95.5,261.5 C 99.5956,262.508 103.596,263.508 107.5,264.5C 106.494,264.938 106.494,265.604 107.5,266.5C 103.203,265.345 99.2025,263.679 95.5,261.5 Z"/></g>
<g><path style="opacity:1" fill="#15ace4" d="M 54.5,286.5 C 51.8427,286.065 49.5093,285.065 47.5,283.5C 45.7149,281.046 43.3815,279.379 40.5,278.5C 40.33,277.178 40.6634,276.011 41.5,275C 39.256,274.95 37.5893,274.117 36.5,272.5C 37.5,272.5 38.5,272.5 39.5,272.5C 39.6079,270.217 40.4412,268.217 42,266.5C 43.3629,264.216 44.8629,264.049 46.5,266C 44.3651,266.759 43.0318,268.259 42.5,270.5C 44.1667,272.5 45.8333,274.5 47.5,276.5C 47.0233,277.478 46.3567,278.311 45.5,279C 48.7165,280.637 52.0498,281.97 55.5,283C 54.8333,283.333 54.1667,283.667 53.5,284C 54.2524,284.671 54.5858,285.504 54.5,286.5 Z"/></g>
<g><path style="opacity:1" fill="#37a3c6" d="M 207.5,261.5 C 199.753,265.863 191.419,268.863 182.5,270.5C 182.389,269.883 182.056,269.383 181.5,269C 186.363,267.201 191.363,265.867 196.5,265C 197.056,264.617 197.389,264.117 197.5,263.5C 200.877,263.041 204.211,262.374 207.5,261.5 Z"/></g>
<g><path style="opacity:1" fill="#2ba6d2" d="M 107.5,264.5 C 110.469,265.825 113.469,265.825 116.5,264.5C 116.833,264.833 117.167,265.167 117.5,265.5C 116.271,266.281 114.938,266.781 113.5,267C 116.289,267.241 118.956,267.908 121.5,269C 120.584,269.278 119.918,269.778 119.5,270.5C 115.376,269.471 111.376,268.137 107.5,266.5C 106.494,265.604 106.494,264.938 107.5,264.5 Z"/></g>
<g><path style="opacity:1" fill="#45a6c9" d="M 71.5,247.5 C 71.5,261.167 71.5,274.833 71.5,288.5C 65.9016,288.844 60.5683,288.178 55.5,286.5C 56.9187,285.549 58.5853,285.216 60.5,285.5C 63.2186,286.913 66.2186,287.58 69.5,287.5C 69.3335,276.495 69.5002,265.495 70,254.5C 70.1862,251.964 70.6862,249.631 71.5,247.5 Z"/></g>
<g><path style="opacity:1" fill="#3ca7cc" d="M 121.5,270.5 C 138.125,272.054 154.792,272.721 171.5,272.5C 154.693,275.55 138.027,274.883 121.5,270.5 Z"/></g>
</svg>
